# xmcd
#
# Track frame offsets:
# 150
# 27286
# 56708
# 76953
# 103920
# 127110
# 163086
# 194635
# 218248
# 247644
# 277229
# 304300
#
# Disc length: 4409 seconds
#
#
# Revision: 1
# Processed by: cddbd v1.5.2PL0 Copyright (c) Steve Scherf et al.
# Submitted via: FreeRIP 2.944 
#
DISCID=b411370c
DTITLE=Nívea Soares - Fan The Fire
DYEAR=2006
DGENRE=Gospel Rock
TTITLE0=Time To Worship
TTITLE1=The One Who Is
TTITLE2=Every Day More And More
TTITLE3=Fall In Love With You
TTITLE4=Fan The Fire
TTITLE5=Pour Out
TTITLE6=Fill Me Up Oh Lond
TTITLE7=No Other God Like You
TTITLE8=Reign Over Me
TTITLE9=I've Found In You a Place
TTITLE10=Love You
TTITLE11=He Will Come
EXTD=by 107,5 FM\nwww.1075fm.com.br
EXTT0=
EXTT1=
EXTT2=
EXTT3=
EXTT4=
EXTT5=
EXTT6=
EXTT7=
EXTT8=
EXTT9=
EXTT10=
EXTT11=
PLAYORDER=
